# xmcd
#
# Track frame offsets: 
#        150
#        10590
#        22225
#        38425
#        48822
#        59470
#        70705
#        80262
#        93712
#        102987
#        113840
#        126127
#        142847
#        153632
#        168237
#        182217
#        197067
#        206625
#        217105
#        231797
#        249137
#        263480
#        272797
#        286267
#        293392
#        300465
#        310160
#        322945
#
# Disc length: 4470 seconds
#
# Revision: 0
# Processed by: cddbd v1.5.1PL0 Copyright (c) Steve Scherf et al.
# Submitted via: ExactAudioCopy v0.95a4
#
DISCID=7c11741c
DTITLE=Willie Nelson - Nashville Was The Roughest... - Disc 7
DYEAR=1900
DGENRE=Country
TTITLE0=Dallas
TTITLE1=San Antonio
TTITLE2=Streets Of Laredo
TTITLE3=Who Put All My Ex's In Texas
TTITLE4=The Hill Country Theme
TTITLE5=Waltz Across Texas
TTITLE6=Travis Letter
TTITLE7=Remember The Alamo
TTITLE8=Texas In My Soul
TTITLE9=There's A Little Bit Of Everything In Texas
TTITLE10=Beautiful Texas
TTITLE11=Medley: Where's The Show - Let Me Be A Man
TTITLE12=In God's Eyes
TTITLE13=Family Bible
TTITLE14=It's Not For Me To Understand
TTITLE15=Medley: These Are Difficult Times - Remember The Good Times
TTITLE16=Summer Of Roses
TTITLE17=December Day
TTITLE18=Yesterday's Wine
TTITLE19=Me And Paul
TTITLE20=Goin' Home
TTITLE21=Phases, Stages, Circles, Cycles And Scenes
TTITLE22=Pretend I Never Happened
TTITLE23=Sister's Coming Home
TTITLE24=Down At The Corner Beer Joint
TTITLE25=I'm Falling In Love Again
TTITLE26=Chet's Tune
TTITLE27=Poor Old Ugly Gladys Jones
EXTD=
EXTT0=
EXTT1=
EXTT2=
EXTT3=
EXTT4=
EXTT5=
EXTT6=
EXTT7=
EXTT8=
EXTT9=
EXTT10=
EXTT11=
EXTT12=
EXTT13=
EXTT14=
EXTT15=
EXTT16=
EXTT17=
EXTT18=
EXTT19=
EXTT20=
EXTT21=
EXTT22=
EXTT23=
EXTT24=
EXTT25=
EXTT26=
EXTT27=
PLAYORDER=
